# Blender v3.2.0 OBJ File: 'Ninjago_Run.blend'
# www.blender.org
mtllib Cloud_Stair.mtl
o Cloud_half.001_Cube.010
v 5.815275 -1.073032 -5.774063
v 5.815275 1.074468 -5.774063
v 5.815277 -1.073032 5.866524
v 5.815277 1.074468 5.866524
v -0.016491 -1.073032 -5.774062
v -0.016491 1.074468 -5.774062
v -0.016490 -1.073032 5.866525
v -0.016490 1.074468 5.866525
v 5.815276 -1.073032 0.046231
v 5.815276 1.074468 0.046230
v -0.016490 -1.073032 0.046231
v -0.016490 1.074468 0.046232
v -5.715432 -1.073032 -5.774061
v -5.715432 1.074468 -5.774061
v -5.715431 -1.073032 0.046232
v -5.715431 1.074468 0.046233
vt 0.375000 0.125000
vt 0.625000 0.125000
vt 0.625000 0.250000
vt 0.375000 0.250000
vt 0.625000 0.500000
vt 0.375000 0.500000
vt 0.625000 0.625000
vt 0.625000 0.750000
vt 0.625000 0.750000
vt 0.625000 0.625000
vt 0.375000 0.750000
vt 0.625000 1.000000
vt 0.375000 1.000000
vt 0.125000 0.625000
vt 0.375000 0.625000
vt 0.125000 0.750000
vt 0.875000 0.625000
vt 0.875000 0.750000
vt 0.875000 0.500000
vt 0.125000 0.500000
vt 0.375000 0.000000
vt 0.625000 0.000000
vt 0.375000 0.625000
vt 0.375000 0.750000
vn 1.0000 0.0000 -0.0000
vn 0.0000 0.0000 1.0000
vn 0.0000 1.0000 -0.0000
vn -0.0000 0.0000 -1.0000
vn 0.0000 -1.0000 0.0000
vn -1.0000 -0.0000 0.0000
usemtl None
s off
f 9/1/1 10/2/1 4/3/1 3/4/1
f 3/4/2 4/3/2 8/5/2 7/6/2
f 12/7/3 6/8/3 14/9/3 16/10/3
f 5/11/4 6/8/4 2/12/4 1/13/4
f 9/14/5 11/15/5 5/11/5 1/16/5
f 12/7/3 10/17/3 2/18/3 6/8/3
f 8/5/3 4/19/3 10/17/3 12/7/3
f 3/20/5 7/6/5 11/15/5 9/14/5
f 7/6/6 8/5/6 12/7/6 11/15/6
f 1/21/1 2/22/1 10/2/1 9/1/1
f 15/23/6 16/10/6 14/9/6 13/24/6
f 6/8/4 5/11/4 13/24/4 14/9/4
f 11/15/2 12/7/2 16/10/2 15/23/2
f 5/11/5 11/15/5 15/23/5 13/24/5
