# Blender v3.1.2 OBJ File: 'Ninjago_Run.blend'
# www.blender.org
mtllib Grass_Base_Corner.mtl
o Grass_Base.002_Cube.004
v 0.000000 0.362195 -5.822822
v 0.000000 1.085074 -5.822822
v 5.822822 1.085074 -5.822822
v 5.822822 0.163732 -5.822822
v 5.730657 -1.076486 -5.730657
v 5.730657 0.155145 -5.730657
v 0.000000 -1.076486 -5.730657
v 0.000000 0.353608 -5.730657
v 2.911411 1.085074 -5.822822
v 2.911411 0.620197 -5.822822
v 2.865329 0.611609 -5.730657
v 2.865329 -1.076486 -5.730657
v 5.822822 1.085074 0.000000
v 5.822822 0.282810 0.000000
v 5.730657 -1.076486 0.000000
v 5.730657 0.274222 0.000000
v 0.000000 -1.076486 0.000000
v 0.000000 1.085074 0.000000
v 2.911411 1.085074 0.000000
v 2.865329 -1.076486 0.000000
v 5.730657 -1.076486 -2.865329
v 5.822822 1.085074 -2.911411
v 5.822822 0.431657 -2.911411
v 5.730657 0.423070 -2.865329
v 0.000000 -1.076486 -2.865329
v 0.000000 1.085074 -2.911411
v 2.911411 1.085074 -2.911411
v 2.865329 -1.076486 -2.865329
v 0.000000 0.136996 -2.961442
v 0.000000 0.516229 0.037974
v -0.155394 0.362195 -5.822822
v -0.155394 0.353608 -5.730657
v -0.155394 1.085074 -5.822822
v -0.155394 1.085074 -2.911411
v -0.155394 1.085074 0.000000
v -0.155394 0.136996 -2.961442
v -0.155394 0.516229 0.037974
v 0.000000 0.367543 0.034429
v 2.947054 0.319552 0.016724
v 5.822822 0.529739 0.000000
v 2.937660 0.732734 0.012316
v 2.911803 1.088631 0.125504
v 5.823214 1.088631 0.125504
v 0.000391 1.088631 0.125504
v -0.155002 1.088631 0.125504
v -0.155002 0.519786 0.163478
v 0.000391 0.519786 0.163478
v 5.823214 0.533296 0.125504
v 2.938051 0.736291 0.137820
vt 0.500000 0.437500
vt 0.625000 0.437500
vt 0.625000 0.500000
vt 0.500000 0.500000
vt 0.500000 0.500000
vt 0.500000 0.437500
vt 0.500000 0.375000
vt 0.500000 0.375000
vt 0.625000 0.375000
vt 0.625000 0.562500
vt 0.687500 0.562500
vt 0.687500 0.625000
vt 0.625000 0.625000
vt 0.750000 0.562500
vt 0.750000 0.625000
vt 0.500000 0.562500
vt 0.500000 0.625000
vt 0.500000 0.625000
vt 0.500000 0.562500
vt 0.538474 0.625000
vt 0.687500 0.500000
vt 0.750000 0.500000
vt 0.500000 0.375000
vt 0.500000 0.495807
vt 0.750000 0.562500
vt 0.750000 0.500000
vt 0.500000 0.375000
vt 0.750000 0.625000
vt 0.500000 0.626657
vt 0.625000 0.375000
vt 0.687500 0.625000
vt 0.625000 0.625000
vt 0.541069 0.625537
vt 0.538474 0.625000
vt 0.500000 0.626657
vt 0.750000 0.625000
vt 0.750000 0.625000
vt 0.500000 0.626657
vt 0.375000 0.437500
vt 0.375000 0.500000
vt 0.375000 0.375000
vt 0.250000 0.562500
vt 0.312500 0.562500
vt 0.312500 0.625000
vt 0.250000 0.625000
vt 0.375000 0.562500
vt 0.375000 0.625000
vt 0.312500 0.500000
vt 0.250000 0.500000
vt 0.500000 0.495807
vt 0.488664 0.625730
vt 0.476662 0.626502
vt 0.500000 0.626657
vt 0.541069 0.625537
vn 0.0000 0.0000 -1.0000
vn -0.1528 -0.9668 -0.2047
vn 0.0887 -0.9936 -0.0704
vn 0.0000 1.0000 0.0000
vn 0.0799 -0.9955 -0.0513
vn 1.0000 0.0000 0.0000
vn 0.1600 -0.9829 0.0912
vn -1.0000 0.0000 0.0000
vn 0.0000 -0.9957 -0.0928
vn 0.0000 0.9996 -0.0283
vn 0.0026 0.0136 0.9999
vn 0.0022 0.0553 0.9985
vn -1.0000 0.0002 0.0031
vn 1.0000 0.0000 -0.0031
vn 0.0000 -1.0000 0.0000
vn 0.0000 -0.9970 -0.0780
vn 0.0029 -0.0123 0.9999
vn 0.0000 -0.9921 0.1254
vn 0.0073 0.0017 1.0000
vn -0.0700 -0.9971 0.0285
vn 0.0053 0.0059 1.0000
vn 0.0000 -0.9996 0.0283
vn 0.0737 -0.9969 0.0280
usemtl Grass
s off
f 10/1/1 9/2/1 3/3/1 4/4/1
f 10/1/2 4/4/2 6/5/2 11/6/2
f 1/7/3 10/1/3 11/6/3 8/8/3
f 1/7/1 2/9/1 9/2/1 10/1/1
f 22/10/4 27/11/4 19/12/4 13/13/4
f 27/11/4 26/14/4 18/15/4 19/12/4
f 23/16/5 14/17/5 16/18/5 24/19/5
f 23/16/6 22/10/6 13/13/6 40/20/6 14/17/6
f 4/4/6 3/3/6 22/10/6 23/16/6
f 4/4/7 23/16/7 24/19/7 6/5/7
f 9/21/4 2/22/4 26/14/4 27/11/4
f 3/3/4 9/21/4 27/11/4 22/10/4
f 32/23/8 36/24/8 34/25/8 33/26/8 31/27/8
f 18/15/4 26/14/4 34/25/4 35/28/4
f 34/25/8 36/24/8 37/29/8 35/28/8
f 1/7/9 8/8/9 32/23/9 31/27/9
f 2/9/1 1/7/1 31/27/1 33/30/1
f 26/14/4 2/22/4 33/26/4 34/25/4
f 13/13/10 19/12/10 42/31/10 43/32/10
f 42/31/11 49/33/11 48/34/11 43/32/11
f 47/35/12 49/33/12 42/31/12 44/36/12 45/37/12 46/38/12
f 18/15/10 35/28/10 45/37/10 44/36/10
f 35/28/13 37/29/13 46/38/13 45/37/13
f 19/12/10 18/15/10 44/36/10 42/31/10
f 40/20/14 13/13/14 43/32/14 48/34/14
usemtl Dirt
f 12/39/1 11/6/1 6/5/1 5/40/1
f 7/41/1 8/8/1 11/6/1 12/39/1
f 25/42/15 28/43/15 20/44/15 17/45/15
f 21/46/6 24/19/6 16/18/6 15/47/6
f 28/43/15 21/46/15 15/47/15 20/44/15
f 12/48/15 5/40/15 21/46/15 28/43/15
f 5/40/6 6/5/6 24/19/6 21/46/6
f 7/49/15 12/48/15 28/43/15 25/42/15
f 8/8/16 29/50/16 36/24/16 32/23/16
f 20/44/17 15/47/17 16/18/17 39/51/17 38/52/17 17/45/17
f 8/8/8 7/49/8 25/42/8 17/45/8 38/52/8 30/53/8 29/50/8
f 29/50/18 30/53/18 37/29/18 36/24/18
f 38/52/19 39/51/19 41/54/19 30/53/19
f 41/54/20 40/20/20 48/34/20 49/33/20
f 40/20/21 41/54/21 39/51/21 16/18/21 14/17/21
f 37/29/22 30/53/22 47/35/22 46/38/22
f 30/53/23 41/54/23 49/33/23 47/35/23
