# Blender v3.1.2 OBJ File: 'Ninjago_Run.blend'
# www.blender.org
mtllib Grass_Base_Half.mtl
o Grass_Base.001_Cube.003
v -5.647283 0.089963 -5.824460
v -5.647283 0.244370 5.821184
v -5.647283 0.812841 5.821184
v 0.175540 0.812841 5.821184
v -5.647283 0.812841 -5.824460
v 0.175540 0.812841 -5.824460
v 0.175540 -0.108500 -5.824460
v 0.175540 -0.108500 5.821184
v 0.083375 -1.348719 -5.732295
v 0.083375 -0.117088 -5.732295
v 0.083375 -1.348719 5.729019
v 0.083375 -0.117088 5.729019
v -5.647283 -1.348719 -5.732295
v -5.647283 -1.348719 5.729019
v -5.647283 0.235782 5.729019
v -5.647283 0.081375 -5.732295
v -2.735871 0.347964 5.821184
v -2.735871 0.812841 5.821184
v -2.735871 0.812841 -5.824460
v -2.735871 0.347964 -5.824460
v -2.781954 -1.348719 5.729019
v -2.781954 0.339377 -5.732295
v -2.781954 -1.348719 -5.732295
v -2.781954 0.339377 5.729019
v 0.175540 0.812841 -0.001638
v 0.175540 0.010578 -0.001638
v 0.083375 -1.348719 -0.001638
v 0.083375 0.001990 -0.001638
v -5.647283 -1.348719 -0.001638
v -5.647283 0.812841 -0.001638
v -2.735871 0.812841 -0.001638
v -2.781954 -1.348719 -0.001638
v 0.175540 0.812841 2.909773
v 0.175540 0.114771 2.909773
v 0.083375 0.106183 2.863690
v -5.647283 -1.348719 2.863690
v -5.647283 0.812841 2.909773
v -2.735871 0.812841 2.909773
v -2.781954 -1.348719 2.863690
v 0.083375 -1.348719 2.863690
v 0.083375 -1.348719 -2.866967
v 0.175540 0.812841 -2.913049
v 0.175540 0.159425 -2.913049
v 0.083375 0.150837 -2.866967
v -5.647283 -1.348719 -2.866967
v -5.647283 0.812841 -2.913049
v -2.735871 0.812841 -2.913049
v -2.781954 -1.348719 -2.866967
v -5.647283 -0.135236 -2.963080
v -5.647283 0.243997 0.036336
v -5.647283 0.493080 2.973437
v -5.802676 0.089963 -5.824460
v -5.802676 0.081375 -5.732295
v -5.802676 0.244370 5.821184
v -5.802676 0.235782 5.729019
v -5.802676 0.812841 2.909773
v -5.802676 0.812841 5.821184
v -5.802676 0.812841 -5.824460
v -5.802676 0.812841 -2.913049
v -5.802676 0.812841 -0.001638
v -5.802676 0.493080 2.973437
v -5.802676 -0.135236 -2.963080
v -5.802676 0.243997 0.036336
vt 0.500000 0.437500
vt 0.625000 0.437500
vt 0.625000 0.500000
vt 0.500000 0.500000
vt 0.500000 0.687500
vt 0.625000 0.687500
vt 0.625000 0.750000
vt 0.500000 0.750000
vt 0.500000 0.750000
vt 0.500000 0.687500
vt 0.500000 0.500000
vt 0.500000 0.437500
vt 0.500000 0.812500
vt 0.500000 0.875000
vt 0.500000 0.875000
vt 0.500000 0.812500
vt 0.687500 0.687500
vt 0.750000 0.687500
vt 0.750000 0.750000
vt 0.687500 0.750000
vt 0.625000 0.812500
vt 0.625000 0.875000
vt 0.500000 0.375000
vt 0.500000 0.375000
vt 0.625000 0.375000
vt 0.625000 0.562500
vt 0.687500 0.562500
vt 0.687500 0.625000
vt 0.625000 0.625000
vt 0.750000 0.562500
vt 0.750000 0.625000
vt 0.500000 0.562500
vt 0.500000 0.625000
vt 0.500000 0.625000
vt 0.500000 0.562500
vt 0.687500 0.500000
vt 0.750000 0.500000
vt 0.500000 0.375000
vt 0.500000 0.495807
vt 0.750000 0.562500
vt 0.750000 0.500000
vt 0.500000 0.375000
vt 0.750000 0.625000
vt 0.750000 0.687500
vt 0.750000 0.750000
vt 0.500000 0.626657
vt 0.500000 0.754788
vt 0.500000 0.875000
vt 0.500000 0.875000
vt 0.625000 0.875000
vt 0.625000 0.375000
vt 0.312500 0.687500
vt 0.375000 0.687500
vt 0.375000 0.750000
vt 0.312500 0.750000
vt 0.375000 0.437500
vt 0.375000 0.500000
vt 0.375000 0.812500
vt 0.375000 0.875000
vt 0.375000 0.375000
vt 0.250000 0.687500
vt 0.250000 0.750000
vt 0.250000 0.562500
vt 0.312500 0.562500
vt 0.312500 0.625000
vt 0.250000 0.625000
vt 0.375000 0.562500
vt 0.375000 0.625000
vt 0.250000 0.500000
vt 0.500000 0.754788
vt 0.500000 0.626657
vt 0.500000 0.495807
vt 0.312500 0.500000
vn 0.0000 0.0000 -1.0000
vn 1.0000 0.0000 0.0000
vn 0.1490 -0.9859 -0.0762
vn -0.1528 -0.9668 -0.2047
vn 0.0357 -0.9958 0.0839
vn 0.0000 1.0000 0.0000
vn 0.0000 0.0000 1.0000
vn -0.1528 -0.9668 0.2047
vn 0.0887 -0.9936 -0.0704
vn 0.0799 -0.9955 -0.0513
vn 0.0838 -0.9958 0.0359
vn 0.1600 -0.9829 0.0912
vn -1.0000 0.0000 0.0000
vn 0.0000 -0.9957 -0.0928
vn 0.0000 -0.9957 0.0928
vn 0.0000 -1.0000 0.0000
vn 0.0000 -0.9970 -0.0780
vn 0.0000 -0.9964 0.0845
vn 0.0000 -0.9921 0.1254
vn 0.0000 -0.9957 -0.0930
usemtl Grass
s off
f 20/1/1 19/2/1 6/3/1 7/4/1
f 34/5/2 33/6/2 4/7/2 8/8/2
f 34/5/3 8/8/3 12/9/3 35/10/3
f 20/1/4 7/4/4 10/11/4 22/12/4
f 17/13/5 2/14/5 15/15/5 24/16/5
f 38/17/6 37/18/6 3/19/6 18/20/6
f 17/13/7 18/21/7 3/22/7 2/14/7
f 8/8/7 4/7/7 18/21/7 17/13/7
f 33/6/6 38/17/6 18/20/6 4/7/6
f 8/8/8 17/13/8 24/16/8 12/9/8
f 1/23/9 20/1/9 22/12/9 16/24/9
f 1/23/1 5/25/1 19/2/1 20/1/1
f 42/26/6 47/27/6 31/28/6 25/29/6
f 47/27/6 46/30/6 30/31/6 31/28/6
f 43/32/10 26/33/10 28/34/10 44/35/10
f 43/32/2 42/26/2 25/29/2 26/33/2
f 25/29/6 31/28/6 38/17/6 33/6/6
f 31/28/6 30/31/6 37/18/6 38/17/6
f 26/33/11 34/5/11 35/10/11 28/34/11
f 26/33/2 25/29/2 33/6/2 34/5/2
f 7/4/2 6/3/2 42/26/2 43/32/2
f 7/4/12 43/32/12 44/35/12 10/11/12
f 19/36/6 5/37/6 46/30/6 47/27/6
f 6/3/6 19/36/6 47/27/6 42/26/6
f 53/38/13 62/39/13 59/40/13 58/41/13 52/42/13
f 37/18/6 30/31/6 60/43/6 56/44/6
f 30/31/6 46/30/6 59/40/6 60/43/6
f 3/19/6 37/18/6 56/44/6 57/45/6
f 59/40/13 62/39/13 63/46/13 60/43/13
f 60/43/13 63/46/13 61/47/13 56/44/13
f 56/44/13 61/47/13 55/48/13 54/49/13 57/50/13
f 2/14/7 3/22/7 57/50/7 54/49/7
f 1/23/14 16/24/14 53/38/14 52/42/14
f 5/25/1 1/23/1 52/42/1 58/51/1
f 15/15/15 2/14/15 54/49/15 55/48/15
f 46/30/6 5/37/6 58/41/6 59/40/6
usemtl Dirt
f 39/52/16 40/53/16 11/54/16 21/55/16
f 40/53/2 35/10/2 12/9/2 11/54/2
f 23/56/1 22/12/1 10/11/1 9/57/1
f 21/58/7 24/16/7 15/15/7 14/59/7
f 11/54/7 12/9/7 24/16/7 21/58/7
f 13/60/1 16/24/1 22/12/1 23/56/1
f 36/61/16 39/52/16 21/55/16 14/62/16
f 45/63/16 48/64/16 32/65/16 29/66/16
f 41/67/2 44/35/2 28/34/2 27/68/2
f 48/64/16 41/67/16 27/68/16 32/65/16
f 29/66/16 32/65/16 39/52/16 36/61/16
f 13/69/13 45/63/13 29/66/13 36/61/13 14/62/13 15/15/13 51/70/13 50/71/13 49/72/13 16/24/13
f 27/68/2 28/34/2 35/10/2 40/53/2
f 32/65/16 27/68/16 40/53/16 39/52/16
f 23/73/16 9/57/16 41/67/16 48/64/16
f 9/57/2 10/11/2 44/35/2 41/67/2
f 13/69/16 23/73/16 48/64/16 45/63/16
f 16/24/17 49/72/17 62/39/17 53/38/17
f 50/71/18 51/70/18 61/47/18 63/46/18
f 49/72/19 50/71/19 63/46/19 62/39/19
f 51/70/20 15/15/20 55/48/20 61/47/20
