# Blender v3.2.0 OBJ File: 'Ninjago_Run.blend'
# www.blender.org
mtllib Lightning.mtl
o Cube.002_Cube.011
v 0.380745 3.057262 1.362246
v 0.436124 4.445380 1.362246
v 0.380745 3.057262 1.121272
v 0.436124 4.445380 1.121272
v 0.681950 2.337260 1.362246
v 0.672968 4.400960 1.362246
v 0.681950 2.337260 1.121272
v 0.672968 4.400960 1.121272
v 0.290198 2.979520 1.362246
v 0.290198 2.979520 1.121272
v 0.409989 2.533240 1.362246
v 0.409989 2.533240 1.121272
v -0.029557 2.893692 1.362246
v -0.029557 2.893692 1.121272
v -0.000795 2.443641 1.362246
v -0.000795 2.443641 1.121272
v -0.008907 3.251770 1.362246
v -0.008907 3.251770 1.121272
v -0.075081 3.239969 1.362246
v -0.075081 3.239969 1.121272
v 0.416059 1.755167 1.362246
v 0.416059 1.755167 1.121272
v 0.005276 1.665567 1.362246
v 0.005276 1.665567 1.121272
v 0.435224 1.261004 1.362246
v 0.435224 1.261004 1.121272
v 0.054593 1.216410 1.362246
v 0.054593 1.216410 1.121272
v 0.466678 0.992521 1.362246
v 0.466678 0.992521 1.121272
v 0.377941 0.999330 1.362246
v 0.377941 0.999330 1.121272
v -0.326048 1.629188 1.362246
v -0.326048 1.629188 1.121272
v -0.307319 1.171294 1.362246
v -0.307319 1.171294 1.121272
v -0.283454 1.887149 1.362246
v -0.283454 1.887149 1.121272
v -0.355365 1.896203 1.362246
v -0.355365 1.896203 1.121272
v 0.088376 0.611241 1.362246
v 0.088376 0.611241 1.121272
v -0.265957 0.670849 1.362246
v -0.265957 0.670849 1.121272
v 0.057864 0.012366 1.362246
v 0.057864 0.012366 1.121272
v -0.059540 0.027539 1.362246
v -0.059540 0.027539 1.121272
vt 0.375000 0.000000
vt 0.625000 0.000000
vt 0.625000 0.250000
vt 0.375000 0.250000
vt 0.625000 0.500000
vt 0.375000 0.500000
vt 0.625000 0.750000
vt 0.375000 0.750000
vt 0.625000 1.000000
vt 0.375000 1.000000
vt 0.375000 1.000000
vt 0.375000 0.750000
vt 0.875000 0.500000
vt 0.875000 0.750000
vt 0.375000 0.000000
vt 0.375000 0.250000
vt 0.375000 0.250000
vt 0.375000 0.000000
vt 0.375000 0.500000
vt 0.125000 0.500000
vt 0.375000 0.500000
vt 0.375000 0.750000
vt 0.125000 0.750000
vt 0.375000 1.000000
vt 0.375000 0.250000
vt 0.375000 0.500000
vt 0.375000 0.500000
vt 0.375000 0.250000
vt 0.375000 0.000000
vt 0.125000 0.750000
vt 0.125000 0.500000
vt 0.375000 1.000000
vt 0.375000 1.000000
vt 0.375000 0.500000
vt 0.375000 0.500000
vt 0.375000 0.750000
vt 0.375000 0.750000
vt 0.375000 0.750000
vt 0.375000 0.500000
vt 0.375000 0.750000
vt 0.375000 0.750000
vt 0.375000 0.500000
vt 0.375000 0.750000
vt 0.375000 0.500000
vt 0.375000 0.750000
vt 0.375000 0.750000
vt 0.375000 0.500000
vt 0.375000 0.500000
vt 0.375000 0.750000
vt 0.375000 0.500000
vt 0.375000 0.500000
vt 0.375000 0.750000
vt 0.375000 0.750000
vt 0.375000 0.500000
vt 0.375000 0.500000
vt 0.375000 0.500000
vt 0.375000 0.750000
vt 0.375000 0.750000
vt 0.375000 0.750000
vn -0.9992 0.0399 0.0000
vn 0.0000 0.0000 -1.0000
vn 1.0000 0.0044 0.0000
vn 0.0000 0.0000 1.0000
vn 0.1843 0.9829 0.0000
vn 0.6731 0.7395 0.0000
vn -0.6514 0.7587 0.0000
vn -0.5846 -0.8113 0.0000
vn -0.9980 -0.0638 0.0000
vn -0.1756 0.9845 0.0000
vn -0.9915 -0.1303 0.0000
vn 1.0000 0.0078 0.0000
vn -1.0000 -0.0078 0.0000
vn -0.5574 -0.8303 0.0000
vn 0.9984 0.0557 0.0000
vn 0.9992 0.0388 0.0000
vn -0.0765 -0.9971 0.0000
vn 0.9932 0.1164 0.0000
vn -0.9992 -0.0409 0.0000
vn 0.1249 0.9922 0.0000
vn 0.6088 0.7933 0.0000
vn -0.9940 -0.1091 0.0000
vn -0.9966 -0.0824 0.0000
vn -0.1282 -0.9918 0.0000
vn -0.9522 -0.3055 0.0000
vn 0.9987 -0.0509 0.0000
usemtl Lightning
s off
f 1/1/1 2/2/1 4/3/1 3/4/1
f 3/4/2 4/3/2 8/5/2 7/6/2
f 7/6/3 8/5/3 6/7/3 5/8/3
f 5/8/4 6/7/4 2/9/4 1/10/4
f 5/8/4 1/10/4 9/11/4 11/12/4
f 8/5/5 4/13/5 2/14/5 6/7/5
f 9/15/6 10/16/6 18/17/6 17/18/6
f 3/4/2 7/6/2 12/19/2 10/16/2
f 1/1/7 3/4/7 10/16/7 9/15/7
f 7/6/8 5/8/8 11/12/8 12/19/8
f 14/20/9 16/21/9 15/22/9 13/23/9
f 11/12/4 9/11/4 13/24/4 15/22/4
f 10/16/2 12/19/2 16/21/2 14/25/2
f 16/21/2 12/19/2 22/26/2 24/27/2
f 17/18/10 18/17/10 20/28/10 19/29/10
f 10/16/2 14/25/2 20/28/2 18/17/2
f 14/20/11 13/23/11 19/30/11 20/31/11
f 13/24/4 9/11/4 17/32/4 19/33/4
f 24/27/2 22/26/2 26/34/2 28/35/2
f 12/19/12 11/12/12 21/36/12 22/26/12
f 11/12/4 15/22/4 23/37/4 21/36/4
f 15/22/13 16/21/13 24/27/13 23/37/13
f 27/38/14 28/35/14 32/39/14 31/40/14
f 28/35/15 27/38/15 41/41/15 42/42/15
f 21/36/4 23/37/4 27/38/4 25/43/4
f 22/26/16 21/36/16 25/43/16 26/34/16
f 30/44/17 29/45/17 31/40/17 32/39/17
f 25/43/4 27/38/4 31/40/4 29/45/4
f 26/34/18 25/43/18 29/45/18 30/44/18
f 28/35/2 26/34/2 30/44/2 32/39/2
f 33/46/19 34/47/19 36/48/19 35/49/19
f 27/38/4 23/37/4 33/46/4 35/49/4
f 24/27/2 34/47/2 40/50/2 38/51/2
f 24/27/2 28/35/2 36/48/2 34/47/2
f 37/52/20 38/51/20 40/50/20 39/53/20
f 23/37/21 24/27/21 38/51/21 37/52/21
f 33/46/4 23/37/4 37/52/4 39/53/4
f 34/47/22 33/46/22 39/53/22 40/50/22
f 44/54/2 42/42/2 46/55/2 48/56/2
f 36/48/2 28/35/2 42/42/2 44/54/2
f 35/49/23 36/48/23 44/54/23 43/57/23
f 27/38/4 35/49/4 43/57/4 41/41/4
f 46/55/24 45/58/24 47/59/24 48/56/24
f 43/57/25 44/54/25 48/56/25 47/59/25
f 41/41/4 43/57/4 47/59/4 45/58/4
f 42/42/26 41/41/26 45/58/26 46/55/26
